<svg width="12" height="8" viewBox="0 0 12 8" fill="none" xmlns="http://www.w3.org/2000/svg">
<path d="M11 1.17C10.8126 0.983753 10.5592 0.879211 10.295 0.879211C10.0308 0.879211 9.77736 0.983753 9.58999 1.17L5.99999 4.71L2.45999 1.17C2.27263 0.983753 2.01918 0.879211 1.75499 0.879211C1.49081 0.879211 1.23736 0.983753 1.04999 1.17C0.956266 1.26297 0.881872 1.37357 0.831103 1.49543C0.780334 1.61729 0.754196 1.74799 0.754196 1.88C0.754196 2.01202 0.780334 2.14272 0.831103 2.26458C0.881872 2.38644 0.956266 2.49704 1.04999 2.59L5.28999 6.83C5.38296 6.92373 5.49356 6.99813 5.61542 7.04889C5.73728 7.09966 5.86798 7.1258 5.99999 7.1258C6.13201 7.1258 6.26271 7.09966 6.38457 7.04889C6.50643 6.99813 6.61703 6.92373 6.70999 6.83L11 2.59C11.0937 2.49704 11.1681 2.38644 11.2189 2.26458C11.2697 2.14272 11.2958 2.01202 11.2958 1.88C11.2958 1.74799 11.2697 1.61729 11.2189 1.49543C11.1681 1.37357 11.0937 1.26297 11 1.17Z" fill="#A6A6A6"/>
</svg>
